<?xml version="1.0" encoding="UTF-8" standalone="no"?><!DOCTYPE svg PUBLIC "-//W3C//DTD SVG 1.1//EN" "http://www.w3.org/Graphics/SVG/1.1/DTD/svg11.dtd"><svg width="100%" height="100%" viewBox="0 0 4167 4167" version="1.1" xmlns="http://www.w3.org/2000/svg" xmlns:xlink="http://www.w3.org/1999/xlink" xml:space="preserve" xmlns:serif="http://www.serif.com/" style="fill-rule:evenodd;clip-rule:evenodd;stroke-linejoin:round;stroke-miterlimit:2;"><rect x="1287.5" y="441.667" width="1570.83" height="1108.33" style="fill:#464f5d;"/><rect x="1287.5" y="2358.33" width="1570.83" height="1108.33" style="fill:#464f5d;"/><g><g><path d="M1675,4211.46c-298.686,-52.193 -523.941,-274.302 -575.412,-567.965c-10.139,-58.905 -12.641,-150.64 -12.641,-441.765l-0,-368.575l-51.471,-17.684c-140.908,-47.116 -251.443,-172.498 -282.637,-319.739c-19.414,-93.413 -36.284,-84.979 161.143,-84.979l172.102,-0l2.545,-914.639c2.546,-905.388 3.366,-916.36 21.098,-978.621c71.705,-251.582 245.533,-425.758 496.113,-498.131c66.658,-19.362 74.251,-19.362 476.698,-19.362c397.4,-0 410.904,0.818 474.196,18.502c255.672,74.05 432.821,254.121 502.024,509.103c13.504,47.976 14.324,139.668 16.87,968.509l3.365,914.639l345.929,-0l-5.048,40.403c-24.463,175.854 -132.452,311.348 -290.23,364.358l-51.471,17.684l0,360.141c0,207.824 -4.228,388.755 -9.276,426.62c-37.147,273.483 -229.483,493.096 -505.389,575.537c-61.61,18.502 -75.933,19.363 -455.601,21.041c-216.065,0.817 -410.947,-1.721 -432.907,-5.077Zm692.72,-1131.76c166.234,-23.536 326.514,-69.016 436.23,-123.704c27.828,-14.285 52.333,-26.935 54.016,-28.613c0.863,-0.861 -36.284,-118.671 -83.527,-260.016l-86.072,-258.338l-31.193,5.034c-278.452,46.298 -870.733,46.298 -1149.18,-0l-31.236,-5.034l-86.072,258.338c-47.243,141.345 -84.39,259.155 -83.527,260.016c1.683,1.678 26.145,14.328 54.016,28.613c142.591,70.694 342.564,118.67 586.414,139.668c72.525,6.755 334.064,-3.356 420.136,-15.964Zm-652.208,-1860.47c239.622,-21.858 626.063,-15.963 869.05,13.468c37.147,5.034 75.114,8.433 85.21,8.433c16.869,0 27.008,-23.579 101.259,-245.688c44.74,-135.494 83.527,-251.582 86.072,-257.477c5.048,-14.328 -134.135,-79.085 -229.483,-106.881c-179.695,-51.332 -332.425,-71.512 -545.038,-71.512c-212.614,0 -365.344,20.18 -545.039,71.512c-95.348,27.753 -234.574,92.553 -229.483,106.881c2.545,5.895 41.332,122.026 86.892,258.338l82.664,247.409l51.471,-5.895c27.785,-3.442 112.174,-11.875 186.425,-18.588Z" style="fill:#fff;fill-rule:nonzero;"/></g></g></svg>