<?xml version="1.0" encoding="UTF-8" standalone="no"?><!DOCTYPE svg PUBLIC "-//W3C//DTD SVG 1.1//EN" "http://www.w3.org/Graphics/SVG/1.1/DTD/svg11.dtd"><svg width="100%" height="100%" viewBox="0 0 334 312" version="1.1" xmlns="http://www.w3.org/2000/svg" xmlns:xlink="http://www.w3.org/1999/xlink" xml:space="preserve" xmlns:serif="http://www.serif.com/" style="fill-rule:evenodd;clip-rule:evenodd;stroke-linejoin:round;stroke-miterlimit:2;"><g><path d="M160.62,0l64.123,2.42l36.994,29.595l22.197,62.891l16.648,-9.248l18.497,-0l14.798,11.098l-0,27.746l-14.798,14.798l-14.798,3.699l14.798,33.296l-0,118.383l-9.249,16.647l-48.093,0l-9.248,-16.647l-0,-18.498l-109.135,0l0,-131.331l42.544,-57.342l0,-35.144l-25.278,-52.363Z" style="fill:#37a2d4;"/><path d="M51.793,311.325l-9.249,-15.368l-0,-149.828l-42.544,-57.342l0,-35.145l25.896,-53.642l16.648,7.399l-0,46.243l14.798,16.648l38.844,-0l14.798,-16.648l-0,-46.243l16.648,-7.399l25.896,53.642l-0,35.145l-44.394,57.342l0,148.549l-9.248,16.647l-48.093,0Z" style="fill:#2b333c;"/></g></svg>